<?xml version="1.0" encoding="utf-8"?>
<!-- Generator: Adobe Illustrator 24.3.0, SVG Export Plug-In . SVG Version: 6.00 Build 0)  -->
<svg version="1.1" id="Layer_1" xmlns="http://www.w3.org/2000/svg" xmlns:xlink="http://www.w3.org/1999/xlink" x="0px" y="0px"
	 viewBox="0 0 756 756" style="enable-background:new 0 0 756 756;" xml:space="preserve">
<style type="text/css">
	.st0{fill:#F4812E;}
</style>
<g>
	<path class="st0" d="M604.35,275.3c0-35.93-14.66-68.19-38.13-90.92c-23.46-23.46-55.73-38.13-90.92-38.13
		c-24.2,0-46.93,6.6-66.72,18.33c-13.93,8.8-26.4,19.8-36.66,32.99l0.73,0.73c11,8.07,20.53,16.13,28.6,24.93
		c13.2,13.93,24.2,29.33,32.26,46.93c3.67,0,8.07-0.73,11.73-0.73c39.59,0,74.79,16.13,101.19,41.79c2.93,2.93,5.87,6.6,8.8,9.53
		c8.8,10.26,16.13,22.73,21.26,35.19c7.33-9.53,13.93-20.53,18.33-31.53C601.41,309.03,604.35,292.16,604.35,275.3z"/>
	<path class="st0" d="M476.03,110.32c10.26,0,19.06-8.8,19.06-19.06V39.2c0-10.26-8.8-19.06-19.06-19.06
		c-10.26,0-19.06,8.8-19.06,19.06v52.06C456.97,101.52,465.77,110.32,476.03,110.32z"/>
	<path class="st0" d="M619.75,158.71l36.66-36.66c7.33-7.33,7.33-19.06,0-26.4c-7.33-7.33-19.06-7.33-26.4,0l-36.66,36.66
		c-7.33,7.33-7.33,19.06,0,26.4C600.68,166.05,612.41,166.05,619.75,158.71z"/>
	<path class="st0" d="M712.86,256.97h-52.06c-10.26,0-19.06,8.8-19.06,19.06c0,10.26,8.8,19.06,19.06,19.06h52.06
		c10.26,0,19.06-8.8,19.06-19.06C731.2,265.76,723.13,256.97,712.86,256.97z"/>
	<path class="st0" d="M619.75,393.35c-7.33-7.33-19.06-7.33-26.4,0c-7.33,7.33-7.33,19.06,0,26.4l36.66,36.66
		c7.33,7.33,19.06,7.33,26.4,0c7.33-7.33,7.33-19.06,0-26.4L619.75,393.35z"/>
	<path class="st0" d="M331.59,158.71c7.33,7.33,19.06,7.33,26.4,0s7.33-19.06,0-26.4l-36.66-36.66c-6.6-8.07-19.06-8.07-26.4,0
		c-7.33,7.33-7.33,19.06,0,26.4L331.59,158.71z"/>
	<path class="st0" d="M520.02,338.36c-19.07-19.07-45.45-30.8-74.06-30.8c-15.39,0-30.05,2.92-43.26,9.53
		c-13.19,5.87-25.66,14.67-35.2,26.4c-6.59,8.06-19.05,8.8-26.39,1.46c-8.06-6.6-8.81-19.07-1.47-26.4
		c13.94-15.4,30.07-27.13,48.4-35.2c2.92-1.46,5.86-2.92,8.8-3.67c-11.73-20.53-26.4-37.39-44.72-49.12
		c-23.46-16.13-51.34-25.67-81.39-25.67c-35.2,0-67.45,13.21-93.12,34.46c-24.93,21.27-42.53,52.06-47.66,86.52
		c-0.73,5.87-3.67,10.27-8.06,13.21c-2.94,2.19-6.6,2.92-10.27,2.92c-24.19,0-46.2,9.54-62.33,25.67
		c-16.13,16.13-25.66,38.13-25.66,62.33c0,24.19,9.53,46.2,25.66,62.33c16.13,16.13,38.13,25.66,62.33,25.66h333.62
		c29.33-0.73,55.72-12.46,74.79-31.53c19.07-19.07,30.8-45.45,30.8-74.06C550.82,383.08,539.09,357.41,520.02,338.36z
		 M109.36,468.84c-22.36,0-40.49-18.13-40.49-40.49c0-22.37,18.13-40.49,40.49-40.49s40.49,18.12,40.49,40.49
		C149.85,450.71,131.72,468.84,109.36,468.84z"/>
	<path class="st0" d="M422.4,550.46H65.21c-13.59,0-24.62,11.12-24.62,24.72c0,13.59,11.03,24.69,24.62,24.69H422.4
		c27.08,0,49.15,21.94,49.15,49.05c0,20.43-16.61,37.02-37.07,37.02c-20.4,0-37.05-16.63-37.05-37.07
		c0-13.6-11.02-24.64-24.62-24.64s-24.62,11.02-24.62,24.62c0,47.58,38.7,86.31,86.28,86.31s86.32-38.69,86.32-86.28
		C520.8,594.59,476.66,550.46,422.4,550.46z"/>
</g>
</svg>
