<svg xmlns="http://www.w3.org/2000/svg" xmlns:xlink="http://www.w3.org/1999/xlink" width="232" height="50" viewBox="0 0 180 43.2" xmlns:v="https://vecta.io/nano"><g fill="#f4812e"><path d="M31.2 17.67c.17-6.19-8.34-8.97-11.88-3.97 1.37 1.02 2.44 2.18 3.15 3.71 3.13-.29 6.14 1.56 7.31 4.39.91-1.19 1.44-2.64 1.42-4.13zm-6.56-8.44c1.55.04.81-2.79.97-3.64 0-.52-.45-.97-.97-.97-1.55-.04-.81 2.79-.97 3.64-.01.52.44.97.97.97zm7.35 2.47l1.87-1.87c.89-.86-.49-2.24-1.35-1.35l-1.87 1.87c-.89.87.49 2.25 1.35 1.35zm4.76 5.03h-2.66c-1.26 0-1.26 1.95 0 1.95h2.66c1.26 0 1.23-1.95 0-1.95z"/><path d="M31.99 23.7c-.86-.89-2.24.49-1.35 1.35l1.87 1.87c.86.89 2.24-.49 1.35-1.35 0 .01-1.87-1.87-1.87-1.87zm-14.74-12c.86.89 2.24-.49 1.35-1.35l-1.87-1.87c-.8-.96-2.26.5-1.35 1.35l1.87 1.87zm9.64 9.19c-4.92-4.28-6.83 1.04-9.15.34-1.2-1.53 1.74-2.82 2.85-3.34-3.66-6.59-12.95-3.83-14.06 3.04-2.6.18-5.07 1.76-5.02 4.65-.02 2.48 2.02 4.52 4.5 4.5h17.06c4.67.09 7.21-6.04 3.82-9.19zm-21 6.67c-2.69.04-2.69-4.18 0-4.14 2.69-.04 2.69 4.18 0 4.14zm16.01 4.17H3.63c-1.62-.02-1.64 2.55 0 2.53h18.26c2.66-.18 3.61 4.26.62 4.4-1.04 0-1.89-.85-1.89-1.9.02-1.63-2.54-1.63-2.52 0-.08 5.72 8.91 5.72 8.82 0 .01-2.77-2.25-5.03-5.02-5.03z"/></g><g fill="#1e3255"><path d="M52.37 26.63c0 .25.03.46.09.61a.85.85 0 0 0 .27.37c.12.09.27.15.44.18a3.74 3.74 0 0 0 .63.05 4.21 4.21 0 0 0 1.05-.12 8.02 8.02 0 0 0 .82-.26c.24-.09.43-.19.59-.27s.29-.12.37-.12c.11 0 .2.04.26.11a.46.46 0 0 1 .1.31c0 .23-.02.4-.07.5s-.14.18-.29.23a8.82 8.82 0 0 1-1.8.42 17.05 17.05 0 0 1-2.27.14c-.63 0-1.14-.03-1.54-.08s-.71-.15-.94-.29-.39-.33-.47-.58-.13-.55-.13-.94v-9.98c0-.13-.01-.23-.04-.31s-.07-.14-.12-.18-.12-.07-.19-.09-.15-.02-.24-.02a2.4 2.4 0 0 0-.48.06c-.19.04-.39.1-.6.18a5.21 5.21 0 0 0-.64.3c-.22.12-.4.26-.57.41a2 2 0 0 0-.41.51c-.11.19-.16.39-.16.61 0 .19.02.34.07.45s.11.19.17.25.13.09.2.11.12.02.15.02c.15 0 .27-.02.36-.07s.18-.1.25-.16.15-.11.22-.16a.39.39 0 0 1 .23-.07c.07 0 .15.02.22.05a.72.72 0 0 1 .22.15c.07.07.12.16.17.28s.07.25.07.42c0 .23-.05.44-.14.61a1.47 1.47 0 0 1-.35.43c-.14.12-.31.2-.49.25a2.09 2.09 0 0 1-.55.08c-.28 0-.53-.05-.76-.15s-.42-.23-.58-.4a1.66 1.66 0 0 1-.36-.6 2.19 2.19 0 0 1-.12-.73c0-.4.07-.77.22-1.11a3.27 3.27 0 0 1 .6-.91c.25-.27.55-.51.9-.71a6.61 6.61 0 0 1 1.11-.51 7.13 7.13 0 0 1 1.25-.3c.44-.06.87-.1 1.3-.1.48 0 .85.05 1.12.14s.46.2.59.33.2.26.22.4l.04.35v9.91zm4.53-2.51c0-.77.11-1.44.33-2.02s.52-1.06.89-1.45.8-.68 1.3-.87 1.01-.29 1.55-.29 1.05.09 1.55.27.92.45 1.3.82.67.84.89 1.4.33 1.23.33 2.01c0 .77-.11 1.45-.33 2.04s-.52 1.09-.89 1.49-.8.71-1.3.92a3.9 3.9 0 0 1-1.55.31c-.54 0-1.05-.1-1.55-.29a3.79 3.79 0 0 1-1.3-.88c-.38-.39-.67-.87-.89-1.45s-.33-1.24-.33-2.01zm5.4-.09l-.05-1.36c-.03-.44-.1-.82-.19-1.16s-.23-.61-.4-.81-.41-.3-.69-.3-.52.11-.69.32-.31.5-.4.84-.16.75-.18 1.19l-.04 1.37.04 1.38a6.61 6.61 0 0 0 .18 1.2c.09.35.23.63.4.85a.83.83 0 0 0 .69.32c.28 0 .52-.11.69-.33s.31-.52.4-.88a6.92 6.92 0 0 0 .19-1.23l.05-1.4zm9.51-1.49c-.18 0-.33-.03-.46-.08s-.22-.13-.3-.22a.94.94 0 0 1-.17-.31c-.04-.11-.05-.23-.05-.36a3.44 3.44 0 0 1 .03-.46c.02-.15.02-.28.01-.4a.4.4 0 0 0-.14-.28c-.08-.07-.21-.11-.4-.11-.21 0-.42.06-.65.18s-.44.3-.62.55-.34.58-.47.97-.18.87-.18 1.43c0 .62.06 1.18.17 1.68s.29.94.51 1.3a2.41 2.41 0 0 0 .85.83c.34.2.74.29 1.2.29.21 0 .4-.02.58-.07s.36-.11.52-.19a3.31 3.31 0 0 0 .47-.29l.44-.35.22.21c-.13.18-.31.38-.52.6s-.47.42-.76.61-.65.35-1.05.48c-.4.12-.85.19-1.36.19a4.03 4.03 0 0 1-1.49-.29 3.94 3.94 0 0 1-1.29-.86 4.08 4.08 0 0 1-.9-1.37c-.22-.54-.34-1.15-.34-1.83 0-.53.07-1.02.2-1.47s.32-.85.55-1.22.5-.68.81-.96.63-.51.97-.69.69-.32 1.04-.42.7-.14 1.02-.14c.43 0 .81.05 1.13.15s.59.23.8.4.37.35.48.57.16.44.16.66c0 .17-.02.33-.07.49a1.35 1.35 0 0 1-.19.4c-.08.11-.19.21-.32.27s-.26.11-.43.11z"/><path d="M76.67 20.22c-.2 0-.38.02-.55.07a2.01 2.01 0 0 0-.44.18c-.12.07-.22.15-.29.23s-.11.17-.11.24c0 .09.05.15.14.19l.3.13a1.02 1.02 0 0 1 .3.21c.09.09.14.23.14.42 0 .12-.02.24-.07.34a1.05 1.05 0 0 1-.2.27c-.08.08-.18.14-.3.18s-.23.07-.36.07c-.33 0-.59-.11-.8-.33s-.3-.52-.3-.89c0-.36.09-.66.28-.92s.43-.46.73-.63.64-.29 1.02-.36.76-.12 1.14-.12c.46 0 .89.05 1.31.15a3.42 3.42 0 0 1 1.1.47c.32.21.57.49.76.83s.29.74.29 1.21v4.97c0 .05 0 .11.01.18a.95.95 0 0 0 .04.18c.02.06.06.1.11.13s.11.05.2.05c.11 0 .2-.04.29-.12s.17-.16.24-.24l.22.18-.32.4a3.01 3.01 0 0 1-.45.41 2.6 2.6 0 0 1-.62.33c-.24.09-.5.13-.8.13-.37 0-.7-.11-.98-.33-.29-.22-.47-.56-.56-1.02-.19.25-.38.46-.58.63a2.89 2.89 0 0 1-.62.41c-.21.1-.42.18-.64.23s-.43.07-.65.07c-.28 0-.55-.04-.82-.13s-.5-.23-.71-.42-.38-.44-.5-.74-.19-.68-.19-1.12c0-.53.11-.97.32-1.31s.49-.63.83-.86.73-.43 1.17-.59l1.34-.52c.34-.13.59-.34.74-.6a1.64 1.64 0 0 0 .23-.82c0-.43-.13-.78-.38-1.04s-.57-.38-1.01-.38zm1.4 3.85c0-.15-.05-.26-.14-.33s-.21-.11-.36-.11c-.21 0-.4.05-.58.14s-.35.23-.49.41-.25.41-.33.67a3.23 3.23 0 0 0-.12.93c0 .34.02.62.07.84s.12.4.2.53.18.22.29.28a.72.72 0 0 0 .35.08.82.82 0 0 0 .43-.12 1.43 1.43 0 0 0 .35-.3c.1-.12.18-.26.24-.41s.09-.3.09-.46v-2.15zm7.41-3.82v6.5c0 .31.06.53.18.65s.28.18.48.18c.16 0 .3-.04.42-.13s.23-.19.32-.3c.11-.12.2-.27.27-.43l.27.12-.31.62a2.35 2.35 0 0 1-.48.62c-.2.19-.45.35-.75.48s-.68.19-1.14.19c-.26 0-.51-.04-.74-.11s-.45-.2-.63-.36-.33-.37-.44-.62-.17-.54-.17-.89v-6.51h-.98v-.63c.16 0 .39-.04.69-.13s.59-.23.9-.43.59-.47.86-.8.45-.75.56-1.24h.7v2.59h1.43c.47 0 .7-.08.7-.24 0-.06-.03-.1-.09-.12s-.12-.05-.2-.08-.14-.08-.2-.14-.09-.16-.09-.29c0-.16.05-.29.15-.39s.24-.14.4-.14c.11 0 .2.02.28.07s.15.1.2.18a1.15 1.15 0 0 1 .12.25c.03.09.04.19.04.28 0 .38-.11.68-.33.91s-.57.34-1.06.34h-1.36z"/><path d="M91.22 27.83c0 .08-.01.17-.04.28s-.09.21-.18.31c-.1.1-.24.18-.42.25s-.43.1-.74.1-.55-.04-.73-.11-.31-.16-.4-.26a.62.62 0 0 1-.16-.31c-.02-.11-.03-.19-.03-.25v-6.79c0-.17-.04-.32-.12-.44s-.21-.19-.4-.19c-.1 0-.18.02-.25.05s-.15.08-.23.15l-.18-.22c.13-.11.29-.22.45-.33s.35-.2.54-.29a3 3 0 0 1 .62-.2c.22-.05.46-.08.7-.08.38 0 .68.05.89.15s.37.23.47.38.16.31.18.48.03.32.03.45v6.87zm-2.97-10.34c0-.16.04-.32.11-.47s.18-.28.31-.39a1.38 1.38 0 0 1 .46-.26c.18-.06.36-.1.57-.1.2 0 .39.03.56.1s.32.15.45.26.23.24.3.39.11.31.11.47a1.05 1.05 0 0 1-.11.47 1.2 1.2 0 0 1-.3.38c-.13.11-.28.19-.45.26s-.36.1-.56.1a1.52 1.52 0 0 1-.57-.1c-.18-.07-.33-.15-.46-.26a1.4 1.4 0 0 1-.31-.38c-.08-.14-.11-.3-.11-.47zm4.17 6.63c0-.77.11-1.44.33-2.02s.52-1.06.89-1.45.8-.68 1.3-.87 1.01-.29 1.55-.29 1.05.09 1.55.27.92.45 1.3.82.67.84.89 1.4.33 1.23.33 2.01c0 .77-.11 1.45-.33 2.04s-.52 1.09-.89 1.49-.8.71-1.3.92a3.9 3.9 0 0 1-1.55.31c-.54 0-1.05-.1-1.55-.29a3.79 3.79 0 0 1-1.3-.88c-.38-.39-.67-.87-.89-1.45s-.33-1.24-.33-2.01zm5.41-.09l-.05-1.36c-.03-.44-.09-.82-.19-1.16s-.23-.61-.4-.81-.41-.3-.69-.3-.52.11-.69.32-.31.5-.4.84-.16.75-.18 1.19l-.04 1.37.04 1.38a6.61 6.61 0 0 0 .18 1.2c.09.35.23.63.4.85a.83.83 0 0 0 .69.32c.28 0 .52-.11.69-.33s.31-.52.4-.88a6.92 6.92 0 0 0 .19-1.23l.05-1.4zm9.09.21c0-.74-.03-1.33-.1-1.77s-.16-.78-.27-1.01-.23-.38-.37-.46a.79.79 0 0 0-.41-.11c-.17 0-.32.05-.45.14s-.25.19-.34.31a2.53 2.53 0 0 0-.25.35c-.07.12-.12.21-.17.26v5.87c0 .08-.01.17-.04.28a.64.64 0 0 1-.17.31c-.09.1-.23.18-.4.25s-.42.1-.73.1-.56-.04-.73-.11c-.18-.07-.32-.16-.41-.26s-.15-.2-.18-.31-.04-.19-.04-.25v-6.79c0-.17-.04-.32-.12-.44-.08-.13-.21-.19-.4-.19-.1 0-.18.02-.25.05s-.15.08-.23.15l-.18-.22c.13-.11.29-.22.45-.33a4.63 4.63 0 0 1 .54-.29 3 3 0 0 1 .62-.2c.22-.05.46-.08.7-.08.38 0 .68.06.89.19s.37.28.47.45.16.36.18.55l.03.48c.22-.31.46-.59.74-.83a3.79 3.79 0 0 1 .37-.31 2.72 2.72 0 0 1 .44-.27 2.92 2.92 0 0 1 .49-.19c.17-.05.35-.07.53-.07.4 0 .75.08 1.06.23s.57.41.78.76.37.83.48 1.42.17 1.32.17 2.19c0 .85-.08 1.59-.23 2.21s-.35 1.16-.6 1.6-.52.8-.83 1.08-.62.5-.94.66-.62.27-.91.33-.54.1-.75.1l-.1-.36a1.92 1.92 0 0 0 .49-.19 1.37 1.37 0 0 0 .41-.39c.12-.17.23-.39.33-.65.09-.26.17-.59.24-.98a11.84 11.84 0 0 0 .15-1.39l.04-1.87zm16.16 1.3l.4-1.12.41-1.24.39-1.29.34-1.29-.85-2.79a.74.74 0 0 1 .01-.51c.06-.15.17-.26.32-.36s.32-.17.52-.22.42-.07.64-.07c.19 0 .37.01.52.03s.29.06.4.11.21.13.29.22.14.22.18.37l2.52 8.12.42-1.18.43-1.3.4-1.35.34-1.34.23-1.26c.05-.4.08-.77.08-1.1a5.18 5.18 0 0 0-.08-.97c-.05-.26-.11-.47-.18-.65l-.18-.43a.75.75 0 0 1-.08-.31c0-.12.03-.23.1-.31s.15-.16.25-.22.21-.1.33-.13.23-.04.33-.04c.23 0 .43.04.6.11s.28.19.34.36a2.29 2.29 0 0 1 .07.28 3.14 3.14 0 0 1 .04.28c.01.09.01.18.01.25v.19c0 .25-.04.58-.12 1.01l-.33 1.45-.47 1.73-.55 1.86-.58 1.83-.55 1.66-.46 1.34-.3.86a.87.87 0 0 1-.19.33c-.08.08-.17.14-.27.19a1.14 1.14 0 0 1-.33.08l-.37.02c-.23 0-.43-.02-.58-.07s-.27-.11-.36-.18-.15-.15-.19-.23l-.1-.22-1.75-5.75-.59 1.88-.57 1.71-.48 1.37-.33.86c-.06.14-.13.25-.21.33a1.26 1.26 0 0 1-.28.19 1.14 1.14 0 0 1-.33.08l-.36.02c-.23 0-.43-.02-.58-.07s-.27-.11-.36-.18-.15-.15-.2-.23l-.1-.22-3.13-10.46c-.06-.2-.12-.37-.19-.51s-.15-.25-.25-.34a.85.85 0 0 0-.35-.19c-.14-.04-.31-.06-.51-.06-.16 0-.35.04-.57.12a2.4 2.4 0 0 0-.62.35c-.2.15-.36.35-.5.58s-.2.5-.2.8c0 .19.02.34.08.45.05.11.11.19.17.25s.13.09.2.11l.14.02c.15 0 .27-.02.36-.07s.18-.1.25-.16.15-.11.21-.16.15-.07.23-.07c.07 0 .15.02.22.05.08.03.15.08.22.15s.12.16.17.28.07.25.07.42c0 .23-.05.44-.14.61a1.47 1.47 0 0 1-.35.43 1.42 1.42 0 0 1-.49.25c-.19.06-.37.08-.55.08-.28 0-.53-.05-.75-.15s-.4-.23-.55-.4a1.82 1.82 0 0 1-.34-.59 2.19 2.19 0 0 1-.12-.73c0-.61.12-1.14.35-1.6a3.34 3.34 0 0 1 .93-1.14c.39-.31.83-.53 1.32-.68s1-.22 1.52-.22c.59 0 1.07.09 1.44.27s.68.41.91.69.42.6.55.94l.36 1.03 2.26 7.16z"/><use xlink:href="#B"/><path d="M143.37 20.22c-.2 0-.38.02-.55.07a2.01 2.01 0 0 0-.44.18c-.12.07-.22.15-.29.23s-.11.17-.11.24c0 .09.04.15.14.19l.3.13a1.02 1.02 0 0 1 .3.21c.09.09.14.23.14.42 0 .12-.03.24-.07.34a1.05 1.05 0 0 1-.2.27c-.08.08-.18.14-.3.18-.11.04-.23.07-.36.07-.33 0-.59-.11-.79-.33s-.3-.52-.3-.89c0-.36.09-.66.28-.92s.43-.46.73-.63.64-.29 1.02-.36.76-.12 1.14-.12c.46 0 .89.05 1.31.15a3.42 3.42 0 0 1 1.1.47 2.42 2.42 0 0 1 .76.83c.19.34.29.74.29 1.21v4.97c0 .05 0 .11.01.18a.95.95 0 0 0 .04.18c.02.06.06.1.11.13s.11.05.2.05c.11 0 .2-.04.29-.12s.17-.16.24-.24l.22.18-.32.4a3.01 3.01 0 0 1-.45.41 2.6 2.6 0 0 1-.62.33c-.24.09-.5.13-.8.13-.37 0-.7-.11-.98-.33-.29-.22-.47-.56-.56-1.02-.19.25-.38.46-.58.63a2.89 2.89 0 0 1-.62.41c-.21.1-.42.18-.64.23s-.43.07-.65.07c-.28 0-.55-.04-.82-.13s-.5-.23-.71-.42-.38-.44-.5-.74-.19-.68-.19-1.12c0-.53.11-.97.32-1.31s.49-.63.83-.86.73-.43 1.17-.59l1.34-.52c.34-.13.59-.34.74-.6a1.67 1.67 0 0 0 .23-.82c0-.43-.13-.78-.38-1.04-.24-.25-.58-.38-1.02-.38zm1.39 3.85c0-.15-.05-.26-.14-.33s-.21-.11-.36-.11c-.21 0-.4.05-.58.14-.19.09-.35.23-.49.41s-.25.41-.33.67a3.23 3.23 0 0 0-.12.93c0 .34.02.62.07.84s.12.4.2.53.18.22.29.28a.72.72 0 0 0 .35.08.82.82 0 0 0 .43-.12 1.43 1.43 0 0 0 .35-.3c.1-.12.18-.26.24-.41s.09-.3.09-.46v-2.15zm7.41-3.82v6.5c0 .31.06.53.18.65s.28.18.48.18c.16 0 .3-.04.42-.13s.23-.19.32-.3c.11-.12.2-.27.27-.43l.27.12-.31.62a2.35 2.35 0 0 1-.48.62c-.2.19-.45.35-.75.48s-.68.19-1.14.19a2.6 2.6 0 0 1-.74-.11c-.24-.08-.45-.2-.63-.36s-.33-.37-.44-.62-.17-.54-.17-.89v-6.51h-.98v-.63c.16 0 .39-.04.69-.13s.59-.23.9-.43.59-.47.86-.8.45-.75.56-1.24h.7v2.59h1.43c.47 0 .7-.08.7-.24 0-.06-.03-.1-.09-.12s-.12-.05-.2-.08a.66.66 0 0 1-.2-.14c-.06-.06-.09-.16-.09-.29 0-.16.05-.29.15-.39s.24-.14.4-.14c.11 0 .2.02.28.07.08.04.14.1.2.18s.09.16.12.25.04.19.04.28c0 .38-.11.68-.33.91s-.57.34-1.06.34h-1.36zm5.48.92c.22-.31.46-.59.74-.83a3.79 3.79 0 0 1 .37-.31 2.72 2.72 0 0 1 .44-.27 2.92 2.92 0 0 1 .49-.19c.17-.05.35-.07.53-.07.39 0 .74.08 1.05.23s.57.41.78.76.37.83.48 1.42.17 1.32.17 2.19c0 .85-.08 1.59-.23 2.21s-.35 1.16-.6 1.6-.52.8-.83 1.08-.62.5-.94.66-.62.27-.91.33-.54.1-.76.1l-.09-.36c.26-.06.5-.18.7-.36s.38-.46.52-.87.25-.94.32-1.62.11-1.56.11-2.63c0-.74-.03-1.33-.1-1.77s-.16-.78-.26-1.01-.23-.38-.37-.46-.28-.11-.42-.11c-.17 0-.32.05-.45.14s-.24.19-.34.31a2.53 2.53 0 0 0-.25.35c-.07.12-.12.21-.17.26v5.87c0 .08-.01.17-.04.28a.64.64 0 0 1-.17.31c-.09.1-.23.18-.4.25s-.42.1-.73.1-.56-.04-.74-.11-.32-.16-.41-.26a.64.64 0 0 1-.17-.31l-.04-.25V16.49c0-.17-.04-.32-.12-.44-.08-.13-.21-.19-.4-.19a.67.67 0 0 0-.26.05c-.07.03-.15.08-.23.15l-.18-.21c.13-.11.28-.22.45-.33a3.94 3.94 0 0 1 .54-.29c.2-.09.41-.15.63-.2s.46-.08.7-.08c.38 0 .68.05.89.15s.37.23.47.38.16.31.18.47l.03.44v4.78z"/><use xlink:href="#B" x="31.16"/><path d="M174.77 21.35c.22-.34.46-.65.71-.92l.34-.34c.12-.11.25-.21.38-.3a1.77 1.77 0 0 1 .41-.21 1.25 1.25 0 0 1 .42-.08c.3 0 .53.09.7.27s.25.43.25.75a3.68 3.68 0 0 1-.05.58c-.03.18-.1.41-.19.67h-.25a.84.84 0 0 0-.25-.45c-.13-.12-.32-.18-.56-.18-.18 0-.36.03-.54.1s-.35.15-.51.25a3.95 3.95 0 0 0-.47.33l-.41.33v5.7a.93.93 0 0 1-.04.27c-.03.1-.08.21-.17.3s-.23.17-.4.24-.42.1-.73.1-.56-.04-.73-.11c-.18-.07-.32-.16-.41-.26s-.15-.2-.18-.31-.04-.19-.04-.25v-6.79c0-.17-.04-.32-.12-.44-.08-.13-.21-.19-.4-.19-.1 0-.18.02-.25.05s-.15.08-.23.15l-.18-.22c.13-.11.29-.22.45-.33a4.63 4.63 0 0 1 .54-.29 3 3 0 0 1 .62-.2c.22-.05.46-.08.7-.08.25 0 .47.03.65.1a1.55 1.55 0 0 1 .44.26 1.54 1.54 0 0 1 .27.36 1.53 1.53 0 0 1 .14.41c.03.14.05.27.06.4l.03.33z"/></g><defs ><path id="B" d="M135.19 24.59c0 .19.03.39.08.61s.14.44.24.66.24.43.39.64.33.38.54.54c.2.16.43.28.67.38s.52.14.81.14c.21 0 .4-.02.57-.07s.34-.11.49-.19.3-.18.44-.29l.42-.35.22.21c-.13.18-.31.38-.52.6s-.47.42-.76.61-.65.35-1.05.48c-.4.12-.85.19-1.36.19a4.02 4.02 0 0 1-1.49-.28c-.48-.19-.91-.46-1.29-.83s-.68-.83-.9-1.38c-.23-.55-.34-1.2-.34-1.93 0-.53.07-1.02.2-1.47s.32-.85.55-1.2a4.57 4.57 0 0 1 .81-.94 5.1 5.1 0 0 1 .97-.67 4.74 4.74 0 0 1 1.04-.4c.35-.09.7-.14 1.02-.14.43 0 .81.05 1.13.14a2.38 2.38 0 0 1 .8.38 1.66 1.66 0 0 1 .48.55 1.39 1.39 0 0 1 .16.65c0 .28-.08.52-.24.74s-.37.41-.63.58l-3.45 2.04zm1.77-1.79a1.04 1.04 0 0 0 .19-.14.48.48 0 0 0 .12-.16 1.05 1.05 0 0 0 .07-.23c.02-.09.02-.2.02-.34 0-.15-.02-.31-.05-.49s-.09-.35-.16-.51a1.18 1.18 0 0 0-.29-.4c-.12-.11-.26-.16-.42-.16-.21 0-.39.06-.54.19s-.27.29-.37.49-.17.43-.23.68a6.51 6.51 0 0 0-.13.77l-.05.74-.01.6 1.85-1.04z"/></defs></svg>