<svg xmlns="http://www.w3.org/2000/svg" viewBox="0 0 128 128"  xmlns:v="https://vecta.io/nano"><path d="M119.9 128H8.1c-4.5 0-8.1-3.6-8.1-8.1V8.1C0 3.6 3.6 0 8.1 0h111.8c4.5 0 8.1 3.6 8.1 8.1v111.8c0 4.5-3.6 8.1-8.1 8.1z" fill="#f4812e"/><path d="M93.4 50.7a16.53 16.53 0 0 0-4.9-11.8c-3-3-7.2-4.9-11.8-4.9-3.1 0-6.1.9-8.7 2.4-1.8 1.1-3.4 2.6-4.8 4.3l.1.1c1.4 1 2.7 2.1 3.7 3.2 1.7 1.8 3.1 3.8 4.2 6.1.5 0 1-.1 1.5-.1 5.1 0 9.7 2.1 13.1 5.4.4.4.8.9 1.1 1.2 1.1 1.3 2.1 2.9 2.8 4.6 1-1.2 1.8-2.7 2.4-4.1.9-2 1.3-4.2 1.3-6.4zM76.7 29.3c1.3 0 2.5-1.1 2.5-2.5V20c0-1.3-1.1-2.5-2.5-2.5-1.3 0-2.5 1.1-2.5 2.5v6.8c.1 1.4 1.2 2.5 2.5 2.5zm18.7 6.3l4.8-4.8c1-1 1-2.5 0-3.4-1-1-2.5-1-3.4 0L92 32.2c-1 1-1 2.5 0 3.4s2.4 1 3.4 0zm12.1 12.7h-6.8c-1.3 0-2.5 1.1-2.5 2.5 0 1.3 1.1 2.5 2.5 2.5h6.8c1.3 0 2.5-1.1 2.5-2.5-.2-1.3-1.2-2.5-2.5-2.5zM95.4 66c-1-1-2.5-1-3.4 0-1 1-1 2.5 0 3.4l4.8 4.8c1 1 2.5 1 3.4 0 1-1 1-2.5 0-3.4L95.4 66zM58 35.6c1 1 2.5 1 3.4 0 1-1 1-2.5 0-3.4l-4.8-4.8c-.9-1-2.5-1-3.4 0-1 1-1 2.5 0 3.4l4.8 4.8zm24.5 23.3c-2.5-2.5-5.9-4-9.6-4-2 0-3.9.4-5.6 1.2S64 58 62.7 59.5c-.9 1-2.5 1.1-3.4.2-1-.9-1.1-2.5-.2-3.4 1.8-2 3.9-3.5 6.3-4.6.4-.2.8-.4 1.1-.5-1.5-2.7-3.4-4.9-5.8-6.4-3-2.1-6.7-3.3-10.6-3.3-4.6 0-8.7 1.7-12.1 4.5-3.2 2.8-5.5 6.8-6.2 11.2-.1.8-.5 1.3-1 1.7-.4.3-.9.4-1.3.4-3.1 0-6 1.2-8.1 3.3s-3.3 4.9-3.3 8.1c0 3.1 1.2 6 3.3 8.1s4.9 3.3 8.1 3.3h43.3c3.8-.1 7.2-1.6 9.7-4.1s4-5.9 4-9.6c-.1-3.7-1.6-7-4-9.5zM29.2 75.8a5.34 5.34 0 0 1-5.3-5.3 5.34 5.34 0 0 1 5.3-5.3 5.34 5.34 0 0 1 5.3 5.3c-.1 3-2.4 5.3-5.3 5.3zm40.6 10.6H23.5c-1.8 0-3.2 1.4-3.2 3.2s1.4 3.2 3.2 3.2h46.3a6.38 6.38 0 0 1 6.4 6.4c0 2.7-2.2 4.8-4.8 4.8s-4.8-2.2-4.8-4.8c0-1.8-1.4-3.2-3.2-3.2s-3.2 1.4-3.2 3.2c0 6.2 5 11.2 11.2 11.2s11.2-5 11.2-11.2c0-7.1-5.8-12.8-12.8-12.8z" opacity=".9" fill="#fff"/></svg>