<svg height='300px' width='300px'  fill="#000000" xmlns="http://www.w3.org/2000/svg" xmlns:xlink="http://www.w3.org/1999/xlink" version="1.1" x="0px" y="0px" viewBox="0 0 100 100" style="enable-background:new 0 0 100 100;" xml:space="preserve"><path d="M49.5,3.4C30,3.6,14.2,19.6,14.2,39.2c0,5.3,1.2,10.4,3.2,14.9c5.3,12.8,16.2,25.9,28.8,40.7  c2,2.4,5.7,2.4,7.7,0c7.2-8.5,13.4-16,18.8-23.7c0.3-0.4,0.2-0.9-0.1-1.2L64,62.3c-0.3-0.3-0.7-0.3-1-0.1c-3.8,2.3-7.8,3.1-12.5,3.2  c-14.1,0.2-26-11.1-26.6-25.2c-0.5-15.2,11.8-27.6,27-27.1C65,13.5,76.4,25.4,76.2,39.6c-0.1,3.6-0.3,6.5-1.7,9.6  c-0.2,0.4-0.1,0.8,0.2,1l6.2,5.5c0.4,0.4,1.1,0.2,1.4-0.3c0.3-0.6,0.5-1.2,0.8-1.8c2.1-4.6,2.8-9.2,2.7-14.6  C85.7,19.2,69.3,3.1,49.5,3.4z"></path><path d="M82.5,62.4L68.1,49.5c-0.3-0.3-0.4-0.8-0.2-1.2c1.3-2.6,2.1-5.6,2.1-8.7C70,28.8,61.2,20,50.4,20  c-5.4,0-10.3,2.2-13.8,5.7s-5.7,8.4-5.7,13.8c0,5.4,2.2,10.3,5.7,13.8c3.5,3.5,8.4,5.7,13.8,5.7c4.1,0,7.8-1.2,11-3.4  c0.4-0.3,0.9-0.2,1.2,0.1l14.3,12.8c0.4,0.4,1.1,0.3,1.4-0.1l4.3-4.8C83,63.4,83,62.8,82.5,62.4z M42.6,47.4c-2-2-3.3-4.8-3.3-7.9  c0-3.1,1.2-5.9,3.3-7.9c2-2,4.8-3.3,7.9-3.3c6.2,0,11.1,5,11.1,11.1c0,3.1-1.2,5.9-3.3,7.9c-2,2-4.8,3.3-7.9,3.3  C47.4,50.7,44.6,49.5,42.6,47.4z"></path></svg>