<?xml version="1.0" encoding="utf-8"?>
<!-- Generator: Adobe Illustrator 24.3.0, SVG Export Plug-In . SVG Version: 6.00 Build 0)  -->
<svg version="1.1" id="Layer_1" xmlns="http://www.w3.org/2000/svg" xmlns:xlink="http://www.w3.org/1999/xlink" x="0px" y="0px" width="40px" height="40px" viewBox="0 0 180 43.2" style="enable-background:new 0 0 180 43.2;" xml:space="preserve">
<style type="text/css">
	.st0{fill:#F4812E;}
	.st1{fill:#1E3255;}
</style>
<g>
	<g>
		<path class="st0" d="M31.2,17.67c0.17-6.19-8.34-8.97-11.88-3.97c1.37,1.02,2.44,2.18,3.15,3.71c3.13-0.29,6.14,1.56,7.31,4.39
			C30.69,20.61,31.22,19.16,31.2,17.67z"/>
		<path class="st0" d="M24.64,9.23c1.55,0.04,0.81-2.79,0.97-3.64c0-0.52-0.45-0.97-0.97-0.97c-1.55-0.04-0.81,2.79-0.97,3.64
			C23.66,8.78,24.11,9.23,24.64,9.23z"/>
		<path class="st0" d="M31.99,11.7l1.87-1.87c0.89-0.86-0.49-2.24-1.35-1.35c0,0-1.87,1.87-1.87,1.87
			C29.75,11.22,31.13,12.6,31.99,11.7z"/>
		<path class="st0" d="M36.75,16.73h-2.66c-1.26,0-1.26,1.95,0,1.95c0,0,2.66,0,2.66,0C38.01,18.68,37.98,16.73,36.75,16.73z"/>
		<path class="st0" d="M31.99,23.7c-0.86-0.89-2.24,0.49-1.35,1.35c0,0,1.87,1.87,1.87,1.87c0.86,0.89,2.24-0.49,1.35-1.35
			C33.86,25.58,31.99,23.7,31.99,23.7z"/>
		<path class="st0" d="M17.25,11.7c0.86,0.89,2.24-0.49,1.35-1.35c0,0-1.87-1.87-1.87-1.87c-0.8-0.96-2.26,0.5-1.35,1.35
			C15.38,9.83,17.25,11.7,17.25,11.7z"/>
		<path class="st0" d="M26.89,20.89c-4.92-4.28-6.83,1.04-9.15,0.34c-1.2-1.53,1.74-2.82,2.85-3.34
			c-3.66-6.59-12.95-3.83-14.06,3.04c-2.6,0.18-5.07,1.76-5.02,4.65c-0.02,2.48,2.02,4.52,4.5,4.5c0,0,17.06,0,17.06,0
			C27.74,30.17,30.28,24.04,26.89,20.89z M5.89,27.56c-2.69,0.04-2.69-4.18,0-4.14C8.58,23.38,8.58,27.6,5.89,27.56z"/>
		<path class="st0" d="M21.9,31.73H3.63c-1.62-0.02-1.64,2.55,0,2.53c0,0,18.26,0,18.26,0c2.66-0.18,3.61,4.26,0.62,4.4
			c-1.04,0-1.89-0.85-1.89-1.9c0.02-1.63-2.54-1.63-2.52,0c-0.08,5.72,8.91,5.72,8.82,0C26.93,33.99,24.67,31.73,21.9,31.73z"/>
	</g>
	<path class="st1" d="M52.37,26.63c0,0.25,0.03,0.46,0.09,0.61s0.15,0.28,0.27,0.37s0.27,0.15,0.44,0.18s0.39,0.05,0.63,0.05
		c0.39,0,0.74-0.04,1.05-0.12s0.58-0.17,0.82-0.26s0.43-0.19,0.59-0.27s0.29-0.12,0.37-0.12c0.11,0,0.2,0.04,0.26,0.11
		s0.1,0.17,0.1,0.31c0,0.23-0.02,0.4-0.07,0.5s-0.14,0.18-0.29,0.23c-0.53,0.19-1.13,0.33-1.8,0.42s-1.42,0.14-2.27,0.14
		c-0.63,0-1.14-0.03-1.54-0.08s-0.71-0.15-0.94-0.29s-0.39-0.33-0.47-0.58s-0.13-0.55-0.13-0.94v-9.98c0-0.13-0.01-0.23-0.04-0.31
		s-0.07-0.14-0.12-0.18s-0.12-0.07-0.19-0.09s-0.15-0.02-0.24-0.02c-0.13,0-0.29,0.02-0.48,0.06s-0.39,0.1-0.6,0.18
		s-0.42,0.18-0.64,0.3s-0.4,0.26-0.57,0.41s-0.3,0.32-0.41,0.51s-0.16,0.39-0.16,0.61c0,0.19,0.02,0.34,0.07,0.45
		s0.11,0.19,0.17,0.25s0.13,0.09,0.2,0.11s0.12,0.02,0.15,0.02c0.15,0,0.27-0.02,0.36-0.07s0.18-0.1,0.25-0.16s0.15-0.11,0.22-0.16
		s0.15-0.07,0.23-0.07c0.07,0,0.15,0.02,0.22,0.05s0.15,0.08,0.22,0.15s0.12,0.16,0.17,0.28s0.07,0.25,0.07,0.42
		c0,0.23-0.05,0.44-0.14,0.61s-0.21,0.31-0.35,0.43s-0.31,0.2-0.49,0.25s-0.37,0.08-0.55,0.08c-0.28,0-0.53-0.05-0.76-0.15
		s-0.42-0.23-0.58-0.4s-0.28-0.37-0.36-0.6s-0.12-0.47-0.12-0.73c0-0.4,0.07-0.77,0.22-1.11s0.35-0.64,0.6-0.91s0.55-0.51,0.9-0.71
		s0.71-0.37,1.11-0.51c0.4-0.13,0.81-0.24,1.25-0.3s0.87-0.1,1.3-0.1c0.48,0,0.85,0.05,1.12,0.14s0.46,0.2,0.59,0.33
		c0.13,0.13,0.2,0.26,0.22,0.4s0.04,0.26,0.04,0.35V26.63z"/>
	<path class="st1" d="M56.9,24.12c0-0.77,0.11-1.44,0.33-2.02s0.52-1.06,0.89-1.45s0.8-0.68,1.3-0.87s1.01-0.29,1.55-0.29
		s1.05,0.09,1.55,0.27s0.92,0.45,1.3,0.82s0.67,0.84,0.89,1.4s0.33,1.23,0.33,2.01c0,0.77-0.11,1.45-0.33,2.04s-0.52,1.09-0.89,1.49
		s-0.8,0.71-1.3,0.92c-0.49,0.21-1.01,0.31-1.55,0.31s-1.05-0.1-1.55-0.29c-0.49-0.2-0.92-0.49-1.3-0.88s-0.67-0.87-0.89-1.45
		S56.9,24.89,56.9,24.12z M62.3,24.03c0-0.47-0.02-0.92-0.05-1.36c-0.03-0.44-0.1-0.82-0.19-1.16s-0.23-0.61-0.4-0.81
		s-0.41-0.3-0.69-0.3s-0.52,0.11-0.69,0.32s-0.31,0.5-0.4,0.84s-0.16,0.75-0.18,1.19s-0.04,0.9-0.04,1.37s0.01,0.93,0.04,1.38
		s0.09,0.85,0.18,1.2s0.23,0.63,0.4,0.85s0.41,0.32,0.69,0.32s0.52-0.11,0.69-0.33s0.31-0.52,0.4-0.88s0.16-0.77,0.19-1.23
		S62.3,24.5,62.3,24.03z"/>
	<path class="st1" d="M71.81,22.54c-0.18,0-0.33-0.03-0.46-0.08s-0.22-0.13-0.3-0.22s-0.13-0.2-0.17-0.31s-0.05-0.23-0.05-0.36
		c0-0.16,0.01-0.31,0.03-0.46s0.02-0.28,0.01-0.4s-0.06-0.21-0.14-0.28s-0.21-0.11-0.4-0.11c-0.21,0-0.42,0.06-0.65,0.18
		s-0.44,0.3-0.62,0.55s-0.34,0.58-0.47,0.97s-0.18,0.87-0.18,1.43c0,0.62,0.06,1.18,0.17,1.68s0.29,0.94,0.51,1.3
		s0.51,0.63,0.85,0.83s0.74,0.29,1.2,0.29c0.21,0,0.4-0.02,0.58-0.07s0.36-0.11,0.52-0.19s0.32-0.18,0.47-0.29s0.29-0.22,0.44-0.35
		l0.22,0.21c-0.13,0.18-0.31,0.38-0.52,0.6s-0.47,0.42-0.76,0.61s-0.65,0.35-1.05,0.48c-0.4,0.12-0.85,0.19-1.36,0.19
		s-1.01-0.1-1.49-0.29c-0.48-0.2-0.91-0.48-1.29-0.86s-0.68-0.83-0.9-1.37s-0.34-1.15-0.34-1.83c0-0.53,0.07-1.02,0.2-1.47
		c0.13-0.45,0.32-0.85,0.55-1.22s0.5-0.68,0.81-0.96s0.63-0.51,0.97-0.69s0.69-0.32,1.04-0.42s0.7-0.14,1.02-0.14
		c0.43,0,0.81,0.05,1.13,0.15s0.59,0.23,0.8,0.4s0.37,0.35,0.48,0.57s0.16,0.44,0.16,0.66c0,0.17-0.02,0.33-0.07,0.49
		s-0.11,0.29-0.19,0.4s-0.19,0.21-0.32,0.27S71.98,22.54,71.81,22.54z"/>
	<path class="st1" d="M76.67,20.22c-0.2,0-0.38,0.02-0.55,0.07s-0.32,0.11-0.44,0.18s-0.22,0.15-0.29,0.23s-0.11,0.17-0.11,0.24
		c0,0.09,0.05,0.15,0.14,0.19s0.19,0.08,0.3,0.13s0.21,0.12,0.3,0.21s0.14,0.23,0.14,0.42c0,0.12-0.02,0.24-0.07,0.34
		s-0.12,0.19-0.2,0.27s-0.18,0.14-0.3,0.18s-0.23,0.07-0.36,0.07c-0.33,0-0.59-0.11-0.8-0.33s-0.3-0.52-0.3-0.89
		c0-0.36,0.09-0.66,0.28-0.92s0.43-0.46,0.73-0.63s0.64-0.29,1.02-0.36s0.76-0.12,1.14-0.12c0.46,0,0.89,0.05,1.31,0.15
		s0.78,0.26,1.1,0.47s0.57,0.49,0.76,0.83s0.29,0.74,0.29,1.21v4.97c0,0.05,0,0.11,0.01,0.18s0.02,0.12,0.04,0.18
		s0.06,0.1,0.11,0.13s0.11,0.05,0.2,0.05c0.11,0,0.2-0.04,0.29-0.12s0.17-0.16,0.24-0.24l0.22,0.18c-0.09,0.12-0.19,0.26-0.32,0.4
		s-0.27,0.28-0.45,0.41s-0.38,0.24-0.62,0.33s-0.5,0.13-0.8,0.13c-0.37,0-0.7-0.11-0.98-0.33c-0.29-0.22-0.47-0.56-0.56-1.02
		c-0.19,0.25-0.38,0.46-0.58,0.63s-0.41,0.31-0.62,0.41s-0.42,0.18-0.64,0.23s-0.43,0.07-0.65,0.07c-0.28,0-0.55-0.04-0.82-0.13
		s-0.5-0.23-0.71-0.42c-0.21-0.19-0.38-0.44-0.5-0.74s-0.19-0.68-0.19-1.12c0-0.53,0.11-0.97,0.32-1.31s0.49-0.63,0.83-0.86
		s0.73-0.43,1.17-0.59s0.88-0.34,1.34-0.52c0.34-0.13,0.59-0.34,0.74-0.6s0.23-0.54,0.23-0.82c0-0.43-0.13-0.78-0.38-1.04
		S77.11,20.22,76.67,20.22z M78.07,24.07c0-0.15-0.05-0.26-0.14-0.33s-0.21-0.11-0.36-0.11c-0.21,0-0.4,0.05-0.58,0.14
		s-0.35,0.23-0.49,0.41s-0.25,0.41-0.33,0.67s-0.12,0.58-0.12,0.93c0,0.34,0.02,0.62,0.07,0.84s0.12,0.4,0.2,0.53
		s0.18,0.22,0.29,0.28s0.23,0.08,0.35,0.08c0.15,0,0.3-0.04,0.43-0.12s0.25-0.18,0.35-0.3s0.18-0.26,0.24-0.41s0.09-0.3,0.09-0.46
		V24.07z"/>
	<path class="st1" d="M85.48,20.25v6.5c0,0.31,0.06,0.53,0.18,0.65s0.28,0.18,0.48,0.18c0.16,0,0.3-0.04,0.42-0.13
		s0.23-0.19,0.32-0.3c0.11-0.12,0.2-0.27,0.27-0.43l0.27,0.12c-0.09,0.19-0.19,0.39-0.31,0.62s-0.28,0.43-0.48,0.62
		c-0.2,0.19-0.45,0.35-0.75,0.48s-0.68,0.19-1.14,0.19c-0.26,0-0.51-0.04-0.74-0.11s-0.45-0.2-0.63-0.36s-0.33-0.37-0.44-0.62
		s-0.17-0.54-0.17-0.89v-6.51h-0.98v-0.63c0.16,0,0.39-0.04,0.69-0.13s0.59-0.23,0.9-0.43s0.59-0.47,0.86-0.8s0.45-0.75,0.56-1.24
		h0.7v2.59h1.43c0.47,0,0.7-0.08,0.7-0.24c0-0.06-0.03-0.1-0.09-0.12s-0.12-0.05-0.2-0.08s-0.14-0.08-0.2-0.14s-0.09-0.16-0.09-0.29
		c0-0.16,0.05-0.29,0.15-0.39s0.24-0.14,0.4-0.14c0.11,0,0.2,0.02,0.28,0.07s0.15,0.1,0.2,0.18s0.09,0.16,0.12,0.25
		s0.04,0.19,0.04,0.28c0,0.38-0.11,0.68-0.33,0.91s-0.57,0.34-1.06,0.34H85.48z"/>
	<path class="st1" d="M91.22,27.83c0,0.08-0.01,0.17-0.04,0.28c-0.03,0.11-0.09,0.21-0.18,0.31c-0.1,0.1-0.24,0.18-0.42,0.25
		s-0.43,0.1-0.74,0.1s-0.55-0.04-0.73-0.11c-0.18-0.07-0.31-0.16-0.4-0.26s-0.14-0.2-0.16-0.31s-0.03-0.19-0.03-0.25v-6.79
		c0-0.17-0.04-0.32-0.12-0.44s-0.21-0.19-0.4-0.19c-0.1,0-0.18,0.02-0.25,0.05s-0.15,0.08-0.23,0.15l-0.18-0.22
		c0.13-0.11,0.29-0.22,0.45-0.33s0.35-0.2,0.54-0.29s0.4-0.15,0.62-0.2s0.46-0.08,0.7-0.08c0.38,0,0.68,0.05,0.89,0.15
		s0.37,0.23,0.47,0.38s0.16,0.31,0.18,0.48s0.03,0.32,0.03,0.45V27.83z M88.25,17.49c0-0.16,0.04-0.32,0.11-0.47
		s0.18-0.28,0.31-0.39s0.28-0.2,0.46-0.26s0.36-0.1,0.57-0.1c0.2,0,0.39,0.03,0.56,0.1s0.32,0.15,0.45,0.26s0.23,0.24,0.3,0.39
		s0.11,0.31,0.11,0.47c0,0.17-0.04,0.33-0.11,0.47s-0.17,0.27-0.3,0.38s-0.28,0.19-0.45,0.26s-0.36,0.1-0.56,0.1
		c-0.21,0-0.39-0.03-0.57-0.1s-0.33-0.15-0.46-0.26s-0.23-0.24-0.31-0.38S88.25,17.66,88.25,17.49z"/>
	<path class="st1" d="M92.42,24.12c0-0.77,0.11-1.44,0.33-2.02s0.52-1.06,0.89-1.45s0.8-0.68,1.3-0.87s1.01-0.29,1.55-0.29
		s1.05,0.09,1.55,0.27s0.92,0.45,1.3,0.82s0.67,0.84,0.89,1.4s0.33,1.23,0.33,2.01c0,0.77-0.11,1.45-0.33,2.04s-0.52,1.09-0.89,1.49
		s-0.8,0.71-1.3,0.92c-0.49,0.21-1.01,0.31-1.55,0.31s-1.05-0.1-1.55-0.29c-0.49-0.2-0.92-0.49-1.3-0.88s-0.67-0.87-0.89-1.45
		S92.42,24.89,92.42,24.12z M97.83,24.03c0-0.47-0.02-0.92-0.05-1.36c-0.03-0.44-0.09-0.82-0.19-1.16s-0.23-0.61-0.4-0.81
		s-0.41-0.3-0.69-0.3s-0.52,0.11-0.69,0.32s-0.31,0.5-0.4,0.84s-0.16,0.75-0.18,1.19s-0.04,0.9-0.04,1.37s0.01,0.93,0.04,1.38
		s0.09,0.85,0.18,1.2s0.23,0.63,0.4,0.85s0.41,0.32,0.69,0.32s0.52-0.11,0.69-0.33s0.31-0.52,0.4-0.88s0.16-0.77,0.19-1.23
		S97.83,24.5,97.83,24.03z"/>
	<path class="st1" d="M106.92,24.24c0-0.74-0.03-1.33-0.1-1.77c-0.07-0.44-0.16-0.78-0.27-1.01s-0.23-0.38-0.37-0.46
		s-0.27-0.11-0.41-0.11c-0.17,0-0.32,0.05-0.45,0.14c-0.13,0.09-0.25,0.19-0.34,0.31c-0.1,0.12-0.18,0.23-0.25,0.35
		c-0.07,0.12-0.12,0.21-0.17,0.26v5.87c0,0.08-0.01,0.17-0.04,0.28c-0.02,0.11-0.08,0.21-0.17,0.31c-0.09,0.1-0.23,0.18-0.4,0.25
		s-0.42,0.1-0.73,0.1s-0.56-0.04-0.73-0.11c-0.18-0.07-0.32-0.16-0.41-0.26s-0.15-0.2-0.18-0.31s-0.04-0.19-0.04-0.25v-6.79
		c0-0.17-0.04-0.32-0.12-0.44c-0.08-0.13-0.21-0.19-0.4-0.19c-0.1,0-0.18,0.02-0.25,0.05s-0.15,0.08-0.23,0.15l-0.18-0.22
		c0.13-0.11,0.29-0.22,0.45-0.33c0.17-0.11,0.35-0.2,0.54-0.29s0.4-0.15,0.62-0.2s0.46-0.08,0.7-0.08c0.38,0,0.68,0.06,0.89,0.19
		s0.37,0.28,0.47,0.45s0.16,0.36,0.18,0.55s0.03,0.35,0.03,0.48c0.22-0.31,0.46-0.59,0.74-0.83c0.11-0.11,0.24-0.21,0.37-0.31
		s0.28-0.19,0.44-0.27s0.32-0.14,0.49-0.19s0.35-0.07,0.53-0.07c0.4,0,0.75,0.08,1.06,0.23c0.31,0.15,0.57,0.41,0.78,0.76
		s0.37,0.83,0.48,1.42s0.17,1.32,0.17,2.19c0,0.85-0.08,1.59-0.23,2.21s-0.35,1.16-0.6,1.6s-0.52,0.8-0.83,1.08s-0.62,0.5-0.94,0.66
		s-0.62,0.27-0.91,0.33c-0.29,0.06-0.54,0.1-0.75,0.1l-0.1-0.36c0.18-0.04,0.34-0.11,0.49-0.19c0.15-0.09,0.29-0.22,0.41-0.39
		s0.23-0.39,0.33-0.65c0.09-0.26,0.17-0.59,0.24-0.98s0.12-0.86,0.15-1.39C106.91,25.58,106.92,24.96,106.92,24.24z"/>
	<path class="st1" d="M123.08,25.54c0.13-0.35,0.26-0.72,0.4-1.12s0.28-0.81,0.41-1.24c0.13-0.42,0.26-0.85,0.39-1.29
		c0.12-0.44,0.24-0.87,0.34-1.29l-0.85-2.79c-0.06-0.19-0.05-0.36,0.01-0.51s0.17-0.26,0.32-0.36s0.32-0.17,0.52-0.22
		c0.2-0.05,0.42-0.07,0.64-0.07c0.19,0,0.37,0.01,0.52,0.03s0.29,0.06,0.4,0.11c0.11,0.05,0.21,0.13,0.29,0.22s0.14,0.22,0.18,0.37
		l2.52,8.12c0.13-0.36,0.28-0.76,0.42-1.18s0.29-0.86,0.43-1.3s0.28-0.9,0.4-1.35s0.24-0.91,0.34-1.34c0.1-0.44,0.17-0.86,0.23-1.26
		c0.05-0.4,0.08-0.77,0.08-1.1c0-0.39-0.03-0.71-0.08-0.97s-0.11-0.47-0.18-0.65c-0.07-0.17-0.13-0.31-0.18-0.43
		c-0.05-0.11-0.08-0.21-0.08-0.31c0-0.12,0.03-0.23,0.1-0.31s0.15-0.16,0.25-0.22s0.21-0.1,0.33-0.13s0.23-0.04,0.33-0.04
		c0.23,0,0.43,0.04,0.6,0.11s0.28,0.19,0.34,0.36c0.03,0.09,0.05,0.18,0.07,0.28s0.03,0.19,0.04,0.28c0.01,0.09,0.01,0.18,0.01,0.25
		s0,0.14,0,0.19c0,0.25-0.04,0.58-0.12,1.01c-0.08,0.43-0.19,0.91-0.33,1.45s-0.29,1.11-0.47,1.73s-0.36,1.23-0.55,1.86
		c-0.19,0.62-0.38,1.23-0.58,1.83s-0.38,1.15-0.55,1.66s-0.32,0.95-0.46,1.34c-0.13,0.38-0.23,0.67-0.3,0.86
		c-0.05,0.14-0.11,0.25-0.19,0.33c-0.08,0.08-0.17,0.14-0.27,0.19c-0.1,0.04-0.21,0.07-0.33,0.08c-0.12,0.01-0.25,0.02-0.37,0.02
		c-0.23,0-0.43-0.02-0.58-0.07c-0.15-0.05-0.27-0.11-0.36-0.18s-0.15-0.15-0.19-0.23s-0.07-0.16-0.1-0.22l-1.75-5.75
		c-0.19,0.64-0.39,1.27-0.59,1.88s-0.39,1.19-0.57,1.71c-0.18,0.52-0.34,0.98-0.48,1.37s-0.25,0.68-0.33,0.86
		c-0.06,0.14-0.13,0.25-0.21,0.33c-0.09,0.08-0.18,0.14-0.28,0.19c-0.1,0.04-0.21,0.07-0.33,0.08s-0.24,0.02-0.36,0.02
		c-0.23,0-0.43-0.02-0.58-0.07c-0.15-0.05-0.27-0.11-0.36-0.18s-0.15-0.15-0.2-0.23c-0.04-0.08-0.08-0.16-0.1-0.22l-3.13-10.46
		c-0.06-0.2-0.12-0.37-0.19-0.51c-0.07-0.14-0.15-0.25-0.25-0.34c-0.1-0.09-0.21-0.15-0.35-0.19c-0.14-0.04-0.31-0.06-0.51-0.06
		c-0.16,0-0.35,0.04-0.57,0.12s-0.42,0.2-0.62,0.35s-0.36,0.35-0.5,0.58s-0.2,0.5-0.2,0.8c0,0.19,0.02,0.34,0.08,0.45
		c0.05,0.11,0.11,0.19,0.17,0.25s0.13,0.09,0.2,0.11c0.07,0.01,0.12,0.02,0.14,0.02c0.15,0,0.27-0.02,0.36-0.07s0.18-0.1,0.25-0.16
		s0.15-0.11,0.21-0.16s0.15-0.07,0.23-0.07c0.07,0,0.15,0.02,0.22,0.05c0.08,0.03,0.15,0.08,0.22,0.15
		c0.07,0.07,0.12,0.16,0.17,0.28s0.07,0.25,0.07,0.42c0,0.23-0.05,0.44-0.14,0.61c-0.09,0.17-0.21,0.31-0.35,0.43
		c-0.14,0.11-0.31,0.2-0.49,0.25c-0.19,0.06-0.37,0.08-0.55,0.08c-0.28,0-0.53-0.05-0.75-0.15c-0.22-0.1-0.4-0.23-0.55-0.4
		c-0.15-0.17-0.26-0.37-0.34-0.59c-0.08-0.23-0.12-0.47-0.12-0.73c0-0.61,0.12-1.14,0.35-1.6s0.54-0.83,0.93-1.14
		s0.83-0.53,1.32-0.68s1-0.22,1.52-0.22c0.59,0,1.07,0.09,1.44,0.27s0.68,0.41,0.91,0.69s0.42,0.6,0.55,0.94s0.25,0.69,0.36,1.03
		L123.08,25.54z"/>
	<path class="st1" d="M135.19,24.59c0,0.19,0.03,0.39,0.08,0.61s0.14,0.44,0.24,0.66s0.24,0.43,0.39,0.64s0.33,0.38,0.54,0.54
		c0.2,0.16,0.43,0.28,0.67,0.38s0.52,0.14,0.81,0.14c0.21,0,0.4-0.02,0.57-0.07s0.34-0.11,0.49-0.19s0.3-0.18,0.44-0.29
		s0.28-0.22,0.42-0.35l0.22,0.21c-0.13,0.18-0.31,0.38-0.52,0.6s-0.47,0.42-0.76,0.61s-0.65,0.35-1.05,0.48
		c-0.4,0.12-0.85,0.19-1.36,0.19s-1.01-0.09-1.49-0.28c-0.48-0.19-0.91-0.46-1.29-0.83s-0.68-0.83-0.9-1.38
		c-0.23-0.55-0.34-1.2-0.34-1.93c0-0.53,0.07-1.02,0.2-1.47s0.32-0.85,0.55-1.2s0.5-0.67,0.81-0.94c0.31-0.27,0.63-0.49,0.97-0.67
		s0.69-0.31,1.04-0.4c0.35-0.09,0.7-0.14,1.02-0.14c0.43,0,0.81,0.05,1.13,0.14s0.59,0.22,0.8,0.38s0.37,0.34,0.48,0.55
		s0.16,0.43,0.16,0.65c0,0.28-0.08,0.52-0.24,0.74s-0.37,0.41-0.63,0.58L135.19,24.59z M136.96,22.8c0.08-0.05,0.14-0.09,0.19-0.14
		c0.05-0.04,0.09-0.1,0.12-0.16s0.05-0.14,0.07-0.23s0.02-0.2,0.02-0.34c0-0.15-0.02-0.31-0.05-0.49c-0.03-0.18-0.09-0.35-0.16-0.51
		s-0.17-0.29-0.29-0.4s-0.26-0.16-0.42-0.16c-0.21,0-0.39,0.06-0.54,0.19c-0.15,0.13-0.27,0.29-0.37,0.49
		c-0.1,0.2-0.17,0.43-0.23,0.68s-0.1,0.51-0.13,0.77s-0.05,0.5-0.05,0.74s-0.01,0.44-0.01,0.6L136.96,22.8z"/>
	<path class="st1" d="M143.37,20.22c-0.2,0-0.38,0.02-0.55,0.07s-0.32,0.11-0.44,0.18s-0.22,0.15-0.29,0.23s-0.11,0.17-0.11,0.24
		c0,0.09,0.04,0.15,0.14,0.19c0.09,0.04,0.19,0.08,0.3,0.13s0.21,0.12,0.3,0.21s0.14,0.23,0.14,0.42c0,0.12-0.03,0.24-0.07,0.34
		c-0.05,0.1-0.12,0.19-0.2,0.27s-0.18,0.14-0.3,0.18c-0.11,0.04-0.23,0.07-0.36,0.07c-0.33,0-0.59-0.11-0.79-0.33
		c-0.2-0.22-0.3-0.52-0.3-0.89c0-0.36,0.09-0.66,0.28-0.92s0.43-0.46,0.73-0.63s0.64-0.29,1.02-0.36s0.76-0.12,1.14-0.12
		c0.46,0,0.89,0.05,1.31,0.15s0.78,0.26,1.1,0.47c0.32,0.22,0.57,0.49,0.76,0.83s0.29,0.74,0.29,1.21v4.97c0,0.05,0,0.11,0.01,0.18
		s0.02,0.12,0.04,0.18s0.06,0.1,0.11,0.13s0.11,0.05,0.2,0.05c0.11,0,0.2-0.04,0.29-0.12c0.09-0.08,0.17-0.16,0.24-0.24l0.22,0.18
		c-0.09,0.12-0.19,0.26-0.32,0.4s-0.27,0.28-0.45,0.41s-0.38,0.24-0.62,0.33s-0.5,0.13-0.8,0.13c-0.37,0-0.7-0.11-0.98-0.33
		c-0.29-0.22-0.47-0.56-0.56-1.02c-0.19,0.25-0.38,0.46-0.58,0.63c-0.2,0.17-0.41,0.31-0.62,0.41s-0.42,0.18-0.64,0.23
		s-0.43,0.07-0.65,0.07c-0.28,0-0.55-0.04-0.82-0.13s-0.5-0.23-0.71-0.42c-0.21-0.19-0.38-0.44-0.5-0.74s-0.19-0.68-0.19-1.12
		c0-0.53,0.11-0.97,0.32-1.31s0.49-0.63,0.83-0.86c0.34-0.23,0.73-0.43,1.17-0.59s0.88-0.34,1.34-0.52c0.34-0.13,0.59-0.34,0.74-0.6
		c0.15-0.27,0.23-0.54,0.23-0.82c0-0.43-0.13-0.78-0.38-1.04C144.15,20.35,143.81,20.22,143.37,20.22z M144.76,24.07
		c0-0.15-0.05-0.26-0.14-0.33s-0.21-0.11-0.36-0.11c-0.21,0-0.4,0.05-0.58,0.14c-0.19,0.09-0.35,0.23-0.49,0.41
		s-0.25,0.41-0.33,0.67s-0.12,0.58-0.12,0.93c0,0.34,0.02,0.62,0.07,0.84s0.12,0.4,0.2,0.53c0.08,0.13,0.18,0.22,0.29,0.28
		s0.23,0.08,0.35,0.08c0.15,0,0.3-0.04,0.43-0.12s0.25-0.18,0.35-0.3s0.18-0.26,0.24-0.41s0.09-0.3,0.09-0.46V24.07z"/>
	<path class="st1" d="M152.17,20.25v6.5c0,0.31,0.06,0.53,0.18,0.65s0.28,0.18,0.48,0.18c0.16,0,0.3-0.04,0.42-0.13
		s0.23-0.19,0.32-0.3c0.11-0.12,0.2-0.27,0.27-0.43l0.27,0.12c-0.09,0.19-0.19,0.39-0.31,0.62s-0.28,0.43-0.48,0.62
		c-0.2,0.19-0.45,0.35-0.75,0.48s-0.68,0.19-1.14,0.19c-0.26,0-0.5-0.04-0.74-0.11c-0.24-0.08-0.45-0.2-0.63-0.36
		c-0.18-0.16-0.33-0.37-0.44-0.62s-0.17-0.54-0.17-0.89v-6.51h-0.98v-0.63c0.16,0,0.39-0.04,0.69-0.13s0.59-0.23,0.9-0.43
		c0.31-0.2,0.59-0.47,0.86-0.8s0.45-0.75,0.56-1.24h0.7v2.59h1.43c0.47,0,0.7-0.08,0.7-0.24c0-0.06-0.03-0.1-0.09-0.12
		s-0.12-0.05-0.2-0.08c-0.07-0.03-0.14-0.08-0.2-0.14s-0.09-0.16-0.09-0.29c0-0.16,0.05-0.29,0.15-0.39s0.24-0.14,0.4-0.14
		c0.11,0,0.2,0.02,0.28,0.07c0.08,0.04,0.14,0.1,0.2,0.18s0.09,0.16,0.12,0.25c0.03,0.09,0.04,0.19,0.04,0.28
		c0,0.38-0.11,0.68-0.33,0.91c-0.22,0.23-0.57,0.34-1.06,0.34H152.17z"/>
	<path class="st1" d="M157.65,21.17c0.22-0.31,0.46-0.59,0.74-0.83c0.11-0.11,0.24-0.21,0.37-0.31s0.28-0.19,0.44-0.27
		s0.32-0.14,0.49-0.19s0.35-0.07,0.53-0.07c0.39,0,0.74,0.08,1.05,0.23s0.57,0.41,0.78,0.76s0.37,0.83,0.48,1.42
		s0.17,1.32,0.17,2.19c0,0.85-0.08,1.59-0.23,2.21s-0.35,1.16-0.6,1.6s-0.52,0.8-0.83,1.08s-0.62,0.5-0.94,0.66
		s-0.62,0.27-0.91,0.33c-0.29,0.06-0.54,0.1-0.76,0.1l-0.09-0.36c0.26-0.06,0.5-0.18,0.7-0.36s0.38-0.46,0.52-0.87
		s0.25-0.94,0.32-1.62c0.07-0.68,0.11-1.56,0.11-2.63c0-0.74-0.03-1.33-0.1-1.77c-0.07-0.44-0.16-0.78-0.26-1.01
		s-0.23-0.38-0.37-0.46s-0.28-0.11-0.42-0.11c-0.17,0-0.32,0.05-0.45,0.14s-0.24,0.19-0.34,0.31c-0.1,0.12-0.18,0.23-0.25,0.35
		c-0.07,0.12-0.12,0.21-0.17,0.26v5.87c0,0.08-0.01,0.17-0.04,0.28c-0.02,0.11-0.08,0.21-0.17,0.31c-0.09,0.1-0.23,0.18-0.4,0.25
		s-0.42,0.1-0.73,0.1s-0.56-0.04-0.74-0.11c-0.18-0.07-0.32-0.16-0.41-0.26s-0.15-0.2-0.17-0.31s-0.04-0.19-0.04-0.25V16.49
		c0-0.17-0.04-0.32-0.12-0.44c-0.08-0.13-0.21-0.19-0.4-0.19c-0.1,0-0.19,0.02-0.26,0.05s-0.15,0.08-0.23,0.15l-0.18-0.21
		c0.13-0.11,0.28-0.22,0.45-0.33s0.34-0.2,0.54-0.29s0.41-0.15,0.63-0.2s0.46-0.08,0.7-0.08c0.38,0,0.68,0.05,0.89,0.15
		s0.37,0.23,0.47,0.38s0.16,0.31,0.18,0.47c0.02,0.17,0.03,0.31,0.03,0.44V21.17z"/>
	<path class="st1" d="M166.35,24.59c0,0.19,0.03,0.39,0.08,0.61s0.14,0.44,0.24,0.66s0.24,0.43,0.39,0.64s0.33,0.38,0.54,0.54
		c0.2,0.16,0.43,0.28,0.67,0.38s0.52,0.14,0.81,0.14c0.21,0,0.4-0.02,0.57-0.07s0.34-0.11,0.49-0.19s0.3-0.18,0.44-0.29
		s0.28-0.22,0.42-0.35l0.22,0.21c-0.13,0.18-0.31,0.38-0.52,0.6s-0.47,0.42-0.76,0.61s-0.65,0.35-1.05,0.48
		c-0.4,0.12-0.85,0.19-1.36,0.19s-1.01-0.09-1.49-0.28c-0.48-0.19-0.91-0.46-1.29-0.83s-0.68-0.83-0.9-1.38
		c-0.23-0.55-0.34-1.2-0.34-1.93c0-0.53,0.07-1.02,0.2-1.47s0.32-0.85,0.55-1.2s0.5-0.67,0.81-0.94c0.31-0.27,0.63-0.49,0.97-0.67
		s0.69-0.31,1.04-0.4c0.35-0.09,0.7-0.14,1.02-0.14c0.43,0,0.81,0.05,1.13,0.14s0.59,0.22,0.8,0.38s0.37,0.34,0.48,0.55
		s0.16,0.43,0.16,0.65c0,0.28-0.08,0.52-0.24,0.74s-0.37,0.41-0.63,0.58L166.35,24.59z M168.12,22.8c0.08-0.05,0.14-0.09,0.19-0.14
		c0.05-0.04,0.09-0.1,0.12-0.16s0.05-0.14,0.07-0.23s0.02-0.2,0.02-0.34c0-0.15-0.02-0.31-0.05-0.49c-0.03-0.18-0.09-0.35-0.16-0.51
		s-0.17-0.29-0.29-0.4s-0.26-0.16-0.42-0.16c-0.21,0-0.39,0.06-0.54,0.19c-0.15,0.13-0.27,0.29-0.37,0.49
		c-0.1,0.2-0.17,0.43-0.23,0.68s-0.1,0.51-0.13,0.77s-0.05,0.5-0.05,0.74s-0.01,0.44-0.01,0.6L168.12,22.8z"/>
	<path class="st1" d="M174.77,21.35c0.22-0.34,0.46-0.65,0.71-0.92c0.11-0.12,0.22-0.23,0.34-0.34s0.25-0.21,0.38-0.3
		c0.13-0.09,0.27-0.16,0.41-0.21s0.28-0.08,0.42-0.08c0.3,0,0.53,0.09,0.7,0.27s0.25,0.43,0.25,0.75c0,0.2-0.02,0.39-0.05,0.58
		c-0.03,0.18-0.1,0.41-0.19,0.67h-0.25c-0.04-0.18-0.12-0.33-0.25-0.45s-0.32-0.18-0.56-0.18c-0.18,0-0.36,0.03-0.54,0.1
		s-0.35,0.15-0.51,0.25c-0.17,0.1-0.32,0.21-0.47,0.33c-0.15,0.12-0.29,0.23-0.41,0.33v5.7c0,0.08-0.01,0.17-0.04,0.27
		s-0.08,0.21-0.17,0.3s-0.23,0.17-0.4,0.24s-0.42,0.1-0.73,0.1s-0.56-0.04-0.73-0.11c-0.18-0.07-0.32-0.16-0.41-0.26
		s-0.15-0.2-0.18-0.31s-0.04-0.19-0.04-0.25v-6.79c0-0.17-0.04-0.32-0.12-0.44c-0.08-0.13-0.21-0.19-0.4-0.19
		c-0.1,0-0.18,0.02-0.25,0.05s-0.15,0.08-0.23,0.15l-0.18-0.22c0.13-0.11,0.29-0.22,0.45-0.33c0.17-0.11,0.35-0.2,0.54-0.29
		s0.4-0.15,0.62-0.2s0.46-0.08,0.7-0.08c0.25,0,0.47,0.03,0.65,0.1c0.18,0.07,0.32,0.16,0.44,0.26c0.11,0.11,0.2,0.23,0.27,0.36
		s0.11,0.27,0.14,0.41s0.05,0.27,0.06,0.4S174.77,21.26,174.77,21.35z"/>
</g>
</svg>
