<?xml version="1.0" encoding="utf-8"?>
<!-- Generator: Adobe Illustrator 17.0.0, SVG Export Plug-In . SVG Version: 6.00 Build 0)  -->
<!DOCTYPE svg PUBLIC "-//W3C//DTD SVG 1.1//EN" "http://www.w3.org/Graphics/SVG/1.1/DTD/svg11.dtd">
<svg version="1.1" id="Layer_1" xmlns="http://www.w3.org/2000/svg" xmlns:xlink="http://www.w3.org/1999/xlink" x="0px" y="0px"
	 width="40px" height="40px" viewBox="0 0 828 828" enable-background="new 0 0 828 828" xml:space="preserve">
<g>
	<path fill="#F5822F" d="M616.069,330.854c0-31.941-13.038-60.624-33.897-80.832c-20.859-20.859-49.543-33.897-80.832-33.897
		c-21.512,0-41.72,5.867-59.32,16.297c-12.385,7.823-23.467,17.6-32.594,29.334l0.652,0.652
		c9.778,7.171,18.252,14.341,25.423,22.164c11.733,12.385,21.512,26.075,28.682,41.72c3.259,0,7.171-0.652,10.43-0.652
		c35.202,0,66.491,14.341,89.958,37.156c2.608,2.608,5.215,5.867,7.823,8.474c7.823,9.126,14.341,20.208,18.905,31.29
		c6.518-8.474,12.385-18.252,16.297-28.03C613.461,360.84,616.069,345.846,616.069,330.854z"/>
	<path fill="#F5822F" d="M501.991,184.183c9.126,0,16.949-7.823,16.949-16.949v-46.283c0-9.126-7.823-16.949-16.949-16.949
		s-16.949,7.823-16.949,16.949v46.282C485.042,176.36,492.865,184.183,501.991,184.183z"/>
	<path fill="#F5822F" d="M629.758,227.206l32.594-32.594c6.518-6.518,6.518-16.949,0-23.467s-16.949-6.518-23.467,0l-32.594,32.594
		c-6.518,6.518-6.518,16.949,0,23.467C612.809,233.725,623.239,233.725,629.758,227.206z"/>
	<path fill="#F5822F" d="M712.545,314.557h-46.282c-9.126,0-16.949,7.823-16.949,16.949c0,9.126,7.823,16.949,16.949,16.949h46.282
		c9.126,0,16.949-7.823,16.949-16.949C728.842,322.379,721.671,314.557,712.545,314.557z"/>
	<path fill="#F5822F" d="M629.758,435.804c-6.518-6.518-16.949-6.518-23.467,0c-6.518,6.518-6.518,16.949,0,23.467l32.594,32.594
		c6.518,6.518,16.949,6.518,23.467,0c6.518-6.518,6.518-16.949,0-23.467L629.758,435.804z"/>
	<path fill="#F5822F" d="M373.572,227.206c6.518,6.518,16.949,6.518,23.467,0c6.518-6.518,6.518-16.949,0-23.467l-32.593-32.594
		c-5.867-7.171-16.949-7.171-23.467,0c-6.518,6.518-6.518,16.949,0,23.467L373.572,227.206z"/>
	<path fill="#F5822F" d="M475.264,359.536c-13.689,0-26.727,2.608-38.461,8.474c-11.734,5.215-22.815,13.038-31.29,23.467
		c-5.867,7.171-16.949,7.823-23.467,1.303c-7.171-5.867-7.823-16.949-1.303-23.467c12.385-13.689,26.727-24.12,43.023-31.29
		c2.608-1.303,5.215-2.608,7.823-3.259c-10.43-18.252-23.467-33.246-39.764-43.676c-20.859-14.341-45.631-22.815-72.358-22.815
		c-31.29,0-59.972,11.733-82.787,30.638c-22.164,18.905-37.808,46.282-42.372,76.92c-0.652,5.215-3.259,9.126-7.171,11.734
		c-2.608,1.956-5.867,2.608-9.126,2.608c-21.512,0-41.068,8.474-55.409,22.815s-22.816,33.898-22.816,55.41
		s8.474,41.068,22.815,55.409c14.341,14.341,33.897,22.815,55.409,22.815h296.601c26.075-0.652,49.543-11.082,66.491-28.03
		c16.949-16.949,27.379-40.416,27.379-65.839c0-26.075-10.43-48.89-27.379-65.839C524.154,369.966,500.687,359.536,475.264,359.536z
		"/>
	<path fill="#F5822F" d="M454.311,575.487H136.754c-12.082,0-21.886,9.883-21.886,21.976c0,12.082,9.804,21.953,21.886,21.953
		h317.556c24.074,0,43.694,19.508,43.694,43.604c0,18.162-14.763,32.913-32.958,32.913c-18.139,0-32.936-14.785-32.936-32.958
		c0-12.093-9.793-21.909-21.886-21.909s-21.886,9.793-21.886,21.886c0,42.303,34.405,76.73,76.708,76.73
		s76.742-34.394,76.742-76.708C541.788,614.716,502.548,575.487,454.311,575.487z"/>
</g>
</svg>
